<?xml version="1.0" encoding="UTF-8"?>
<!DOCTYPE svg PUBLIC "-//W3C//DTD SVG 1.1//EN" "http://www.w3.org/Graphics/SVG/1.1/DTD/svg11.dtd">
<!-- Creator: CorelDRAW -->
<svg xmlns="http://www.w3.org/2000/svg" xml:space="preserve" width="5in" height="5in" version="1.1" style="shape-rendering:geometricPrecision; text-rendering:geometricPrecision; image-rendering:optimizeQuality; fill-rule:evenodd; clip-rule:evenodd"
viewBox="0 0 5000 5000"
 xmlns:xlink="http://www.w3.org/1999/xlink"
 xmlns:xodm="http://www.corel.com/coreldraw/odm/2003">
 <defs>
  <style type="text/css">
   <![CDATA[
    .fil0 {fill:#333333}
    .fil1 {fill:#D1E4FF}
   ]]>
  </style>
 </defs>
 <g id="Layer_x0020_1">
  <metadata id="CorelCorpID_0Corel-Layer"/>
  <path class="fil0" d="M2332.75 1642.97c60.17,183.01 -2.5,949.75 14.8,1194.57 3.59,-3.3 7.8,-8.12 9.94,-10.74l85.17 -133.54c60.15,-91.7 130.2,-226.38 213.78,-242.23 315.06,-59.76 18.37,478.61 -17.09,582.02 -45.25,131.98 -137.39,393.9 -142,534.02 76.76,-183.98 172.5,-392.64 258.14,-579.65 87.81,-191.75 120.52,-371.08 238.36,-392.01 359.62,-63.88 -85.11,690.43 -166.37,1065.67 85.35,-100.35 173.09,-267.78 249.91,-385.94 52.85,-81.29 188.16,-367.6 317.1,-314.77 108.71,99.54 41.09,164.89 -11.74,287.06l-289.09 592.26c-52.32,85.98 -58.17,71.09 -21.25,171.35 16.57,44.99 32.11,125.2 53.94,154.39 367.9,-148.77 603.35,-222.81 1004.02,-275.1 101.8,-13.29 296,-17.11 383.2,-41.29l189.75 -2892.67c-689.12,59.53 -1258.19,132.52 -1848.25,473.44 -293.93,169.82 -309.29,265.61 -522.33,213.16z"/>
  <path class="fil1" d="M2347.56 2837.54c-17.31,-244.83 45.36,-1011.57 -14.8,-1194.57 -5.95,-14.57 -12.01,-16.01 -42.03,-38.47 -604.52,-452.49 -1364.8,-597.78 -2117.27,-647.17l189.85 2892.33c104.5,25.16 291.87,28.04 413.3,43.88 554.98,72.4 621.56,162.38 1061.17,310.2 -165.33,-243.5 -224.56,-194.91 -222.76,-702.74 0.65,-183.15 91.2,-1110.39 391.54,-998.22 134.39,50.19 58.65,217.63 23.85,326.32 -73.22,228.69 -89.5,592 55.89,776.29 45.85,-129.48 74.41,-272.02 120.8,-405.61 27.86,-80.23 138.64,-317.34 140.46,-362.23z"/>
  <path class="fil1" d="M537.47 916.81c374.14,50.31 640.11,100.04 966.61,221.47 397.17,147.71 451.94,197.8 793.87,388.13 -81.9,-153.3 -511.29,-482.74 -732,-610.28 -243.76,-140.85 -684.57,-337.14 -1031.55,-328.15l3.07 328.82z"/>
  <path class="fil0" d="M2594.25 1514.74c124.79,-58.08 242.52,-141.22 382.13,-208.8 467.78,-226.42 823.37,-316.49 1358.79,-388.35l6.54 -329.64c-582.34,-21.09 -1606.76,626.49 -1747.46,926.8z"/>
  <path class="fil1" d="M863.85 536.58c264.73,128.97 313,88.59 728.22,336.4 99.7,59.5 458.64,308.48 538.44,395.69 56.39,61.61 14.88,38.67 87.42,68.89 -105.21,-338.64 -809.69,-981.51 -1294.57,-1077.76l-59.5 276.79z"/>
  <path class="fil0" d="M2644.56 1355.95c55.44,-26.1 34.58,-10.92 77.88,-58.76 198.27,-219.06 629.88,-477.09 894.27,-603.98 124.83,-59.92 259.22,-92.53 391,-155.26l-54.02 -277.24c-462.35,79.5 -1152.39,701.5 -1309.13,1095.24z"/>
 </g>
</svg>
