<?xml version="1.0" encoding="UTF-8"?>
<!DOCTYPE svg PUBLIC "-//W3C//DTD SVG 1.1//EN" "http://www.w3.org/Graphics/SVG/1.1/DTD/svg11.dtd">
<!-- Creator: CorelDRAW -->
<svg xmlns="http://www.w3.org/2000/svg" xml:space="preserve" width="5in" height="5in" version="1.1" style="shape-rendering:geometricPrecision; text-rendering:geometricPrecision; image-rendering:optimizeQuality; fill-rule:evenodd; clip-rule:evenodd"
viewBox="0 0 5000 5000"
 xmlns:xlink="http://www.w3.org/1999/xlink"
 xmlns:xodm="http://www.corel.com/coreldraw/odm/2003">
 <defs>
  <style type="text/css">
   <![CDATA[
    .fil1 {fill:#AB00FF}
    .fil0 {fill:white}
   ]]>
  </style>
 </defs>
 <g id="Layer_x0020_1">
  <metadata id="CorelCorpID_0Corel-Layer"/>
  <path class="fil0" d="M2366.2 2012.64c61.93,188.36 -2.57,977.52 15.24,1229.51 3.69,-3.4 8.02,-8.36 10.22,-11.06l87.66 -137.45c61.92,-94.38 134.01,-233 220.03,-249.31 324.28,-61.52 18.9,492.6 -17.59,599.04 -46.57,135.83 -141.41,405.42 -146.16,549.63 79.01,-189.36 177.55,-404.12 265.69,-596.6 90.38,-197.36 124.04,-381.93 245.33,-403.47 370.14,-65.75 -87.6,710.62 -171.23,1096.83 87.84,-103.28 178.16,-275.61 257.22,-397.22 54.39,-83.67 193.66,-378.35 326.37,-323.98 111.89,102.44 42.3,169.72 -12.08,295.46l-297.54 609.58c-53.86,88.49 -59.87,73.17 -21.87,176.36 17.05,46.31 33.05,128.86 55.52,158.91 378.65,-153.12 620.99,-229.33 1033.38,-283.15 104.77,-13.68 304.65,-17.61 394.41,-42.5l195.3 -2977.26c-709.28,61.27 -1294.98,136.39 -1902.3,487.29 -302.52,174.79 -318.33,273.38 -537.6,219.4z"/>
  <path class="fil1" d="M2381.44 3242.15c-17.81,-251.99 46.69,-1041.15 -15.24,-1229.51 -6.13,-15 -12.36,-16.48 -43.26,-39.6 -622.2,-465.72 -1404.71,-615.27 -2179.19,-666.1l195.4 2976.91c107.55,25.9 300.4,28.86 425.39,45.17 571.21,74.52 639.73,167.13 1092.2,319.27 -170.17,-250.61 -231.13,-200.61 -229.28,-723.29 0.67,-188.5 93.86,-1142.86 403,-1027.41 138.31,51.65 60.36,224 24.54,335.86 -75.37,235.38 -92.11,609.31 57.53,798.99 47.19,-133.27 76.58,-279.97 124.33,-417.47 28.67,-82.57 142.69,-326.62 144.57,-372.82z"/>
  <path class="fil1" d="M518.42 1265.24c385.08,51.78 658.83,102.96 994.87,227.94 408.78,152.03 465.15,203.58 817.08,399.49 -84.3,-157.79 -526.24,-496.86 -753.4,-628.13 -250.89,-144.97 -704.59,-347 -1061.72,-337.74l3.17 338.43z"/>
  <path class="fil0" d="M2635.35 1880.66c128.44,-59.78 249.61,-145.35 393.3,-214.91 481.46,-233.04 847.45,-325.74 1398.53,-399.71l6.73 -339.28c-599.37,-21.71 -1653.74,644.81 -1798.56,953.9z"/>
  <path class="fil1" d="M854.34 873.89c272.48,132.74 322.15,91.18 749.52,346.23 102.61,61.24 472.05,317.5 554.18,407.26 58.03,63.42 15.32,39.8 89.97,70.91 -108.28,-348.54 -833.37,-1010.21 -1332.43,-1109.28l-61.24 284.88z"/>
  <path class="fil0" d="M2687.13 1717.22c57.06,-26.87 35.59,-11.24 80.16,-60.47 204.07,-225.46 648.3,-491.05 920.42,-621.65 128.49,-61.67 266.81,-95.23 402.44,-159.8l-55.6 -285.35c-475.87,81.83 -1186.09,722.01 -1347.42,1127.27z"/>
 </g>
</svg>
